<?xml version="1.0" encoding="utf-8"?>
<!-- Generator: Adobe Illustrator 19.2.1, SVG Export Plug-In . SVG Version: 6.00 Build 0)  -->
<svg version="1.1" id="Layer_1" xmlns="http://www.w3.org/2000/svg" xmlns:xlink="http://www.w3.org/1999/xlink" x="0px" y="0px"
	 width="50px" height="50px" viewBox="0 0 50 50" style="enable-background:new 0 0 50 50;" xml:space="preserve">
<style type="text/css">
	.st0{fill:#0F8EC7;}
</style>
<rect x="10" y="44" class="st0" width="30" height="2"/>
<path class="st0" d="M48,6v26H2V6H48 M48,4H2C0.9,4,0,4.9,0,6v26c0,1.1,0.9,2,2,2h46c1.1,0,2-0.9,2-2V6C50,4.9,49.1,4,48,4L48,4z"/>
<rect x="19" y="32.5" class="st0" width="2" height="12"/>
<rect x="28" y="32.5" class="st0" width="2" height="12"/>
<path class="st0" d="M24.5,37c-1.1,0-2,0.9-2,2s0.9,2,2,2s2-0.9,2-2S25.6,37,24.5,37L24.5,37z"/>
<polygon class="st0" points="22.5,25 20.5,25 26.5,13 28.5,13 "/>
<polygon class="st0" points="19,16 17.5,16 16,19 17.5,22 19,22 17.5,19 "/>
<polygon class="st0" points="30,16 31.5,16 33,19 31.5,22 30,22 31.5,19 "/>
</svg>
