<?xml version="1.0" encoding="utf-8"?>
<!-- Generator: Adobe Illustrator 19.2.1, SVG Export Plug-In . SVG Version: 6.00 Build 0)  -->
<svg version="1.1" id="Layer_1" xmlns="http://www.w3.org/2000/svg" xmlns:xlink="http://www.w3.org/1999/xlink" x="0px" y="0px"
	 width="50px" height="50px" viewBox="0 0 50 50" style="enable-background:new 0 0 50 50;" xml:space="preserve">
<style type="text/css">
	.st0{fill:#0F8EC7;}
</style>
<path class="st0" d="M30,49H20v-2h10V49z M33,42H17v2h16V42z M35,37H15v2h20V37z M12.6,34C9.2,30.7,7,26.1,7,21c0-9.9,8.1-18,18-18
	s18,8.1,18,18c0,5.1-2.2,9.7-5.6,13h2.8c3-3.5,4.8-8,4.8-13c0-11-9-20-20-20S5,10,5,21c0,5,1.8,9.5,4.8,13H12.6z"/>
</svg>
