<?xml version="1.0" encoding="utf-8"?>
<!-- Generator: Adobe Illustrator 19.2.1, SVG Export Plug-In . SVG Version: 6.00 Build 0)  -->
<svg version="1.1" id="Layer_1" xmlns="http://www.w3.org/2000/svg" xmlns:xlink="http://www.w3.org/1999/xlink" x="0px" y="0px"
	 width="50px" height="50px" viewBox="0 0 50 50" style="enable-background:new 0 0 50 50;" xml:space="preserve">
<style type="text/css">
	.st0{fill:#0F8EC7;}
</style>
<path class="st0" d="M50,41v2h-5v0h-2v0H0v-2h5v-8h2v8h10V21h2v20h10V25h2v16h12V15h2v26H50z M3,28c0-1.7,1.3-3,3-3
	c0.5,0,0.9,0.1,1.3,0.3l8-8C15.1,16.9,15,16.5,15,16c0-1.7,1.3-3,3-3c1.6,0,2.9,1.2,3,2.8l6.4,2.7C28,17.6,28.9,17,30,17
	c0.6,0,1.2,0.2,1.7,0.5l9.4-6.7C41,10.5,41,10.3,41,10c0-1.7,1.3-3,3-3s3,1.3,3,3s-1.3,3-3,3c-0.7,0-1.3-0.2-1.8-0.6l-9.4,6.7
	c0.1,0.3,0.1,0.6,0.1,0.9c0,1.7-1.3,3-3,3c-1.5,0-2.7-1.1-3-2.5l-6.6-2.7C19.9,18.5,19,19,18,19c-0.5,0-0.9-0.1-1.3-0.3l-8,8
	C8.9,27.1,9,27.5,9,28c0,1.7-1.3,3-3,3S3,29.7,3,28z M43,10c0,0.6,0.4,1,1,1c0.6,0,1-0.4,1-1s-0.4-1-1-1C43.4,9,43,9.4,43,10z
	 M29,20c0,0.6,0.4,1,1,1s1-0.4,1-1c0-0.6-0.4-1-1-1S29,19.4,29,20z M17,16c0,0.6,0.4,1,1,1s1-0.4,1-1c0-0.6-0.4-1-1-1S17,15.4,17,16
	z M5,28c0,0.6,0.4,1,1,1s1-0.4,1-1s-0.4-1-1-1S5,27.4,5,28z"/>
</svg>
