<?xml version="1.0" encoding="utf-8"?>
<!-- Generator: Adobe Illustrator 19.2.1, SVG Export Plug-In . SVG Version: 6.00 Build 0)  -->
<svg version="1.1" id="Layer_1" xmlns="http://www.w3.org/2000/svg" xmlns:xlink="http://www.w3.org/1999/xlink" x="0px" y="0px"
	 width="50px" height="50px" viewBox="0 0 50 50" style="enable-background:new 0 0 50 50;" xml:space="preserve">
<style type="text/css">
	.st0{fill:#0F8EC7;}
</style>
<path class="st0" d="M32,18v18H10H9.2l-0.6,0.6L6,39.2V38v-2H4H2V18H32 M32,16H2c-1.1,0-2,0.9-2,2v18c0,1.1,0.9,2,2,2h2v6l6-6h22
	c1.1,0,2-0.9,2-2V18C34,16.9,33.1,16,32,16L32,16z M9,25c-1.1,0-2,0.9-2,2s0.9,2,2,2s2-0.9,2-2S10.1,25,9,25z M25,25
	c-1.1,0-2,0.9-2,2c0,1.1,0.9,2,2,2s2-0.9,2-2C27,25.9,26.1,25,25,25z M17,25c-1.1,0-2,0.9-2,2c0,1.1,0.9,2,2,2c1.1,0,2-0.9,2-2
	C19,25.9,18.1,25,17,25z M48,7H18c-1.1,0-2,0.9-2,2v5h2V9h30v18h-2h-2v2v1.2l-2.6-2.6L40.8,27H40h-4v2h4l6,6v-6h2c1.1,0,2-0.9,2-2V9
	C50,7.9,49.1,7,48,7z"/>
</svg>
