<?xml version="1.0" encoding="utf-8"?>
<!-- Generator: Adobe Illustrator 19.2.1, SVG Export Plug-In . SVG Version: 6.00 Build 0)  -->
<svg version="1.1" id="Layer_1" xmlns="http://www.w3.org/2000/svg" xmlns:xlink="http://www.w3.org/1999/xlink" x="0px" y="0px"
	 width="50px" height="50px" viewBox="0 0 50 50" style="enable-background:new 0 0 50 50;" xml:space="preserve">
<style type="text/css">
	.st0{fill:#0F8EC7;}
</style>
<path class="st0" d="M36,2c1.1,0,2,0.9,2,2v42c0,1.1-0.9,2-2,2H14c-1.1,0-2-0.9-2-2V4c0-1.1,0.9-2,2-2H36 M36,0H14c-2.2,0-4,1.8-4,4
	v42c0,2.2,1.8,4,4,4h22c2.2,0,4-1.8,4-4V4C40,1.8,38.2,0,36,0L36,0z M25,40c-1.1,0-2,0.9-2,2c0,1.1,0.9,2,2,2s2-0.9,2-2
	C27,40.9,26.1,40,25,40L25,40z M30,5H20v2h10V5z M29,19h-2l-6,12h2L29,19z M19.5,22H18l-1.5,3l1.5,3h1.5L18,25L19.5,22z M32,25
	l-1.5,3H32l1.5-3L32,22h-1.5L32,25z"/>
</svg>
