<?xml version="1.0" encoding="utf-8"?>
<!-- Generator: Adobe Illustrator 19.2.1, SVG Export Plug-In . SVG Version: 6.00 Build 0)  -->
<svg version="1.1" id="Layer_1" xmlns="http://www.w3.org/2000/svg" xmlns:xlink="http://www.w3.org/1999/xlink" x="0px" y="0px"
	 width="50px" height="50px" viewBox="0 0 50 50" style="enable-background:new 0 0 50 50;" xml:space="preserve">
<style type="text/css">
	.st0{fill:#0F8EC7;}
</style>
<path class="st0" d="M48,7v36H2V7H48 M50,5H0v40h50V5L50,5z"/>
<path class="st0" d="M21,18v20H7V18H21 M23,16H5v24h18V16L23,16z"/>
<path class="st0" d="M43,18v6H29v-6H43 M45,16H27v10h18V16L45,16z"/>
<path class="st0" d="M43,32v6H29v-6H43 M45,30H27v10h18V30L45,30z"/>
<rect y="11" class="st0" width="50" height="2"/>
<circle class="st0" cx="4.3" cy="9" r="1"/>
<circle class="st0" cx="7.3" cy="9" r="1"/>
<circle class="st0" cx="10.3" cy="9" r="1"/>
</svg>
